<svg width="47" height="48" viewBox="0 0 47 48" fill="none" xmlns="http://www.w3.org/2000/svg">
<path d="M37.5366 25.7153C37.6132 25.0939 37.6706 24.4725 37.6706 23.8123C37.6706 23.1521 37.6132 22.5308 37.5366 21.9094L41.5768 18.7055C41.9406 18.4142 42.0364 17.8899 41.8066 17.4627L37.977 10.7442C37.7472 10.317 37.2302 10.1616 36.809 10.317L32.0411 12.2587C31.0454 11.482 29.9731 10.8412 28.805 10.3558L28.0774 5.21008C28.02 4.74405 27.6179 4.39453 27.1392 4.39453H19.4799C19.0012 4.39453 18.5991 4.74405 18.5416 5.21008L17.814 10.3558C16.646 10.8412 15.5737 11.5014 14.578 12.2587L9.8101 10.317C9.3697 10.1422 8.87185 10.317 8.64207 10.7442L4.81244 17.4627C4.56352 17.8899 4.67841 18.4142 5.04222 18.7055L9.08248 21.9094C9.00588 22.5308 8.94844 23.1716 8.94844 23.8123C8.94844 24.4531 9.00588 25.0939 9.08248 25.7153L5.04222 28.9192C4.67841 29.2105 4.58267 29.7348 4.81244 30.162L8.64207 36.8805C8.87185 37.3077 9.38884 37.4631 9.8101 37.3077L14.578 35.3659C15.5737 36.1426 16.646 36.7834 17.814 37.2689L18.5416 42.4146C18.5991 42.8806 19.0012 43.2301 19.4799 43.2301H27.1392C27.6179 43.2301 28.02 42.8806 28.0774 42.4146L28.805 37.2689C29.9731 36.7834 31.0454 36.1232 32.0411 35.3659L36.809 37.3077C37.2494 37.4825 37.7472 37.3077 37.977 36.8805L41.8066 30.162C42.0364 29.7348 41.9406 29.2105 41.5768 28.9192L37.5366 25.7153Z" stroke="#2A2A2A" stroke-width="3.23631"/>
<path d="M23.3089 30.5306C19.6347 30.5306 16.6458 27.4996 16.6458 23.7736C16.6458 20.0476 19.6347 17.0166 23.3089 17.0166C26.9832 17.0166 29.9721 20.0476 29.9721 23.7736C29.9721 27.4996 26.9832 30.5306 23.3089 30.5306Z" fill="#D8D8D8" stroke="#2A2A2A" stroke-width="3.23631"/>
</svg>
