<svg width="60" height="44" viewBox="0 0 60 44" fill="none" xmlns="http://www.w3.org/2000/svg">
<path d="M20.1037 38.6654L8.995 25.4275L11.2517 17.6281L27.9097 8.22754L46.434 11.4763L57.7698 24.402L49.4493 35.5179L41.2566 39.406L31.629 40.8409L20.1037 38.6654Z" fill="#D8D8D8"/>
<path d="M59.3011 23.1474L59.3009 23.147C56.4075 17.5253 52.7719 13.2964 48.3906 10.473C44.009 7.64945 38.8852 6.2341 33.0194 6.2341C27.1505 6.2341 22.0267 7.64945 17.6458 10.4737C13.2652 13.2978 9.63126 17.5282 6.7378 23.1526L6.73775 23.1527C6.50136 23.6144 6.37863 24.1189 6.37863 24.6299C6.37863 25.141 6.50136 25.6455 6.73775 26.1071L6.73781 26.1073C9.63127 31.7289 13.2668 35.9579 17.6481 38.7812C22.0297 41.6048 27.1535 43.0201 33.0194 43.0201C38.8882 43.0201 44.0121 41.6048 48.3929 38.7805C52.7735 35.9565 56.4074 31.7261 59.3009 26.1017C59.7799 25.1721 59.7797 24.0932 59.3011 23.1474ZM33.0194 38.8427C28.1137 38.8427 23.8684 37.6956 20.2167 35.3434C16.5723 32.9958 13.5151 29.4451 10.9831 24.6271C13.5151 19.8091 16.5723 16.2584 20.2167 13.9109C23.8684 11.5586 28.1137 10.4115 33.0194 10.4115C37.925 10.4115 42.1704 11.5586 45.822 13.9109C49.4664 16.2584 52.5237 19.8091 55.0556 24.6271C52.5267 29.4451 49.471 32.9958 45.8266 35.3434C42.1749 37.6956 37.9281 38.8427 33.0194 38.8427ZM32.7755 14.6674C26.8197 14.6674 21.9822 19.1218 21.9822 24.6271C21.9822 30.1324 26.8197 34.5869 32.7755 34.5869C38.7313 34.5869 43.5688 30.1324 43.5688 24.6271C43.5688 19.1218 38.7313 14.6674 32.7755 14.6674ZM32.7755 30.8592C29.033 30.8592 26.013 28.0667 26.013 24.6271C26.013 21.1876 29.033 18.395 32.7755 18.395C36.5181 18.395 39.5381 21.1876 39.5381 24.6271C39.5381 28.0667 36.5181 30.8592 32.7755 30.8592Z" fill="#D8D8D8" stroke="#D8D8D8" stroke-width="0.129452"/>
<path d="M53.829 17.3447L53.8287 17.3441C50.9332 11.7185 47.2942 7.48475 42.9072 4.65771C38.5197 1.83039 33.3897 0.413653 27.5184 0.413653C21.6441 0.413653 16.514 1.83039 12.1273 4.65842C7.74102 7.48618 4.10354 11.7213 1.20805 17.3497L1.20797 17.3499C0.969279 17.816 0.845293 18.3256 0.845293 18.8418C0.845293 19.3581 0.969279 19.8677 1.20797 20.3338L1.20806 20.334C4.10355 25.9596 7.74257 30.1933 12.1296 33.0204C16.5171 35.8477 21.6471 37.2644 27.5184 37.2644C33.3927 37.2644 38.5228 35.8477 42.9095 33.0196C47.2957 30.1919 50.9332 25.9568 53.8287 20.3284C54.3126 19.3895 54.3122 18.2996 53.829 17.3447ZM27.5184 33.0223C22.618 33.0223 18.379 31.8765 14.7333 29.5281C11.0984 27.1866 8.04715 23.6457 5.5187 18.839C8.04715 14.0324 11.0984 10.4914 14.7333 8.14997C18.379 5.80158 22.618 4.6558 27.5184 4.6558C32.4188 4.6558 36.6578 5.80158 40.3035 8.14997C43.9384 10.4914 46.9896 14.0324 49.5181 18.8391C46.9927 23.6457 43.943 27.1867 40.3081 29.5281C36.6624 31.8765 32.4218 33.0223 27.5184 33.0223ZM27.2746 8.84691C21.3034 8.84691 16.4489 13.3134 16.4489 18.839C16.4489 24.3647 21.3034 28.8311 27.2746 28.8311C33.2457 28.8311 38.1002 24.3647 38.1002 18.839C38.1002 13.3134 33.2457 8.84691 27.2746 8.84691ZM27.2746 25.0388C23.5473 25.0388 20.5444 22.2583 20.5444 18.839C20.5444 15.4198 23.5473 12.6393 27.2746 12.6393C31.0018 12.6393 34.0047 15.4198 34.0047 18.839C34.0047 22.2583 31.0018 25.0388 27.2746 25.0388Z" fill="#2A2A2A" stroke="#2A2A2A" stroke-width="0.194179"/>
</svg>
